{
    "accessors" : [
        {
            "bufferView" : 0,
            "componentType" : 5123,
            "count" : 225,
            "max" : [
                120
            ],
            "min" : [
                0
            ],
            "type" : "SCALAR"
        },
        {
            "bufferView" : 1,
            "componentType" : 5126,
            "count" : 121,
            "max" : [
                944.8818969726562,
                314.9606018066406,
                -0.0
            ],
            "min" : [
                0.0,
                0.0,
                -944.8818969726562
            ],
            "type" : "VEC3"
        },
        {
            "bufferView" : 2,
            "componentType" : 5126,
            "count" : 121,
            "max" : [
                1.0,
                1.0,
                1.0
            ],
            "min" : [
                -1.0,
                -1.0,
                -1.0
            ],
            "type" : "VEC3"
        },
        {
            "bufferView" : 3,
            "componentType" : 5126,
            "count" : 121,
            "max" : [
                1.0,
                0.0,
                -0.0,
                1.0
            ],
            "min" : [
                1.0,
                0.0,
                -0.0,
                -1.0
            ],
            "type" : "VEC4"
        },
        {
            "bufferView" : 4,
            "componentType" : 5126,
            "count" : 121,
            "max" : [
                0.0,
                1.0
            ],
            "min" : [
                0.0,
                1.0
            ],
            "type" : "VEC2"
        },
        {
            "bufferView" : 5,
            "componentType" : 5123,
            "count" : 108,
            "max" : [
                58
            ],
            "min" : [
                0
            ],
            "type" : "SCALAR"
        },
        {
            "bufferView" : 6,
            "componentType" : 5126,
            "count" : 59,
            "max" : [
                944.8818969726562,
                314.9606018066406,
                -0.0
            ],
            "min" : [
                0.0,
                0.0,
                -944.8818969726562
            ],
            "type" : "VEC3"
        },
        {
            "bufferView" : 7,
            "componentType" : 5126,
            "count" : 59,
            "max" : [
                1.0,
                1.0,
                1.0
            ],
            "min" : [
                -1.0,
                -1.0,
                -1.0
            ],
            "type" : "VEC3"
        },
        {
            "bufferView" : 8,
            "componentType" : 5126,
            "count" : 59,
            "max" : [
                1.0,
                0.0,
                -0.0,
                1.0
            ],
            "min" : [
                1.0,
                0.0,
                -0.0,
                -1.0
            ],
            "type" : "VEC4"
        },
        {
            "bufferView" : 9,
            "componentType" : 5126,
            "count" : 59,
            "max" : [
                0.0,
                1.0
            ],
            "min" : [
                0.0,
                1.0
            ],
            "type" : "VEC2"
        },
        {
            "bufferView" : 10,
            "componentType" : 5123,
            "count" : 6,
            "max" : [
                3
            ],
            "min" : [
                0
            ],
            "type" : "SCALAR"
        },
        {
            "bufferView" : 11,
            "componentType" : 5126,
            "count" : 4,
            "max" : [
                944.8818969726562,
                0.0,
                -0.0
            ],
            "min" : [
                0.0,
                0.0,
                -944.8818969726562
            ],
            "type" : "VEC3"
        },
        {
            "bufferView" : 12,
            "componentType" : 5126,
            "count" : 4,
            "max" : [
                -0.0,
                1.0,
                -0.0
            ],
            "min" : [
                -0.0,
                1.0,
                -0.0
            ],
            "type" : "VEC3"
        },
        {
            "bufferView" : 13,
            "componentType" : 5126,
            "count" : 4,
            "max" : [
                -1.0,
                0.0,
                -0.0,
                -1.0
            ],
            "min" : [
                -1.0,
                0.0,
                -0.0,
                -1.0
            ],
            "type" : "VEC4"
        },
        {
            "bufferView" : 14,
            "componentType" : 5126,
            "count" : 4,
            "max" : [
                120.2667007446289,
                121.0
            ],
            "min" : [
                -120.2667007446289,
                -119.0
            ],
            "type" : "VEC2"
        },
        {
            "bufferView" : 15,
            "componentType" : 5123,
            "count" : 225,
            "max" : [
                120
            ],
            "min" : [
                0
            ],
            "type" : "SCALAR"
        },
        {
            "bufferView" : 16,
            "componentType" : 5126,
            "count" : 121,
            "max" : [
                944.8818969726562,
                314.9606018066406,
                -0.0
            ],
            "min" : [
                0.0,
                0.0,
                -944.8818969726562
            ],
            "type" : "VEC3"
        },
        {
            "bufferView" : 17,
            "componentType" : 5126,
            "count" : 121,
            "max" : [
                1.0,
                1.0,
                1.0
            ],
            "min" : [
                -1.0,
                -1.0,
                -1.0
            ],
            "type" : "VEC3"
        },
        {
            "bufferView" : 18,
            "componentType" : 5126,
            "count" : 121,
            "max" : [
                1.0,
                0.0,
                -0.0,
                1.0
            ],
            "min" : [
                1.0,
                0.0,
                -0.0,
                -1.0
            ],
            "type" : "VEC4"
        },
        {
            "bufferView" : 19,
            "componentType" : 5126,
            "count" : 121,
            "max" : [
                0.0,
                1.0
            ],
            "min" : [
                0.0,
                1.0
            ],
            "type" : "VEC2"
        },
        {
            "bufferView" : 20,
            "componentType" : 5123,
            "count" : 108,
            "max" : [
                58
            ],
            "min" : [
                0
            ],
            "type" : "SCALAR"
        },
        {
            "bufferView" : 21,
            "componentType" : 5126,
            "count" : 59,
            "max" : [
                944.8818969726562,
                314.9606018066406,
                -0.0
            ],
            "min" : [
                0.0,
                0.0,
                -944.8818969726562
            ],
            "type" : "VEC3"
        },
        {
            "bufferView" : 22,
            "componentType" : 5126,
            "count" : 59,
            "max" : [
                1.0,
                1.0,
                1.0
            ],
            "min" : [
                -1.0,
                -1.0,
                -1.0
            ],
            "type" : "VEC3"
        },
        {
            "bufferView" : 23,
            "componentType" : 5126,
            "count" : 59,
            "max" : [
                1.0,
                0.0,
                -0.0,
                1.0
            ],
            "min" : [
                1.0,
                0.0,
                -0.0,
                -1.0
            ],
            "type" : "VEC4"
        },
        {
            "bufferView" : 24,
            "componentType" : 5126,
            "count" : 59,
            "max" : [
                0.0,
                1.0
            ],
            "min" : [
                0.0,
                1.0
            ],
            "type" : "VEC2"
        },
        {
            "bufferView" : 25,
            "componentType" : 5123,
            "count" : 6,
            "max" : [
                3
            ],
            "min" : [
                0
            ],
            "type" : "SCALAR"
        },
        {
            "bufferView" : 26,
            "componentType" : 5126,
            "count" : 4,
            "max" : [
                944.8818969726562,
                0.0,
                -0.0
            ],
            "min" : [
                0.0,
                0.0,
                -944.8818969726562
            ],
            "type" : "VEC3"
        },
        {
            "bufferView" : 27,
            "componentType" : 5126,
            "count" : 4,
            "max" : [
                -0.0,
                1.0,
                -0.0
            ],
            "min" : [
                -0.0,
                1.0,
                -0.0
            ],
            "type" : "VEC3"
        },
        {
            "bufferView" : 28,
            "componentType" : 5126,
            "count" : 4,
            "max" : [
                -1.0,
                0.0,
                -0.0,
                -1.0
            ],
            "min" : [
                -1.0,
                0.0,
                -0.0,
                -1.0
            ],
            "type" : "VEC4"
        },
        {
            "bufferView" : 29,
            "componentType" : 5126,
            "count" : 4,
            "max" : [
                120.2667007446289,
                121.0
            ],
            "min" : [
                -120.2667007446289,
                -119.0
            ],
            "type" : "VEC2"
        }
    ],
    "asset" : {
        "generator" : "Khronos Blender glTF 2.0 exporter",
        "version" : "2.0"
    },
    "bufferViews" : [
        {
            "buffer" : 0,
            "byteLength" : 450,
            "byteOffset" : 0,
            "target" : 34963
        },
        {
            "buffer" : 0,
            "byteLength" : 1452,
            "byteOffset" : 452,
            "target" : 34962
        },
        {
            "buffer" : 0,
            "byteLength" : 1452,
            "byteOffset" : 1904,
            "target" : 34962
        },
        {
            "buffer" : 0,
            "byteLength" : 1936,
            "byteOffset" : 3356,
            "target" : 34962
        },
        {
            "buffer" : 0,
            "byteLength" : 968,
            "byteOffset" : 5292,
            "target" : 34962
        },
        {
            "buffer" : 0,
            "byteLength" : 216,
            "byteOffset" : 6260,
            "target" : 34963
        },
        {
            "buffer" : 0,
            "byteLength" : 708,
            "byteOffset" : 6476,
            "target" : 34962
        },
        {
            "buffer" : 0,
            "byteLength" : 708,
            "byteOffset" : 7184,
            "target" : 34962
        },
        {
            "buffer" : 0,
            "byteLength" : 944,
            "byteOffset" : 7892,
            "target" : 34962
        },
        {
            "buffer" : 0,
            "byteLength" : 472,
            "byteOffset" : 8836,
            "target" : 34962
        },
        {
            "buffer" : 0,
            "byteLength" : 12,
            "byteOffset" : 9308,
            "target" : 34963
        },
        {
            "buffer" : 0,
            "byteLength" : 48,
            "byteOffset" : 9320,
            "target" : 34962
        },
        {
            "buffer" : 0,
            "byteLength" : 48,
            "byteOffset" : 9368,
            "target" : 34962
        },
        {
            "buffer" : 0,
            "byteLength" : 64,
            "byteOffset" : 9416,
            "target" : 34962
        },
        {
            "buffer" : 0,
            "byteLength" : 32,
            "byteOffset" : 9480,
            "target" : 34962
        },
        {
            "buffer" : 0,
            "byteLength" : 450,
            "byteOffset" : 9512,
            "target" : 34963
        },
        {
            "buffer" : 0,
            "byteLength" : 1452,
            "byteOffset" : 9964,
            "target" : 34962
        },
        {
            "buffer" : 0,
            "byteLength" : 1452,
            "byteOffset" : 11416,
            "target" : 34962
        },
        {
            "buffer" : 0,
            "byteLength" : 1936,
            "byteOffset" : 12868,
            "target" : 34962
        },
        {
            "buffer" : 0,
            "byteLength" : 968,
            "byteOffset" : 14804,
            "target" : 34962
        },
        {
            "buffer" : 0,
            "byteLength" : 216,
            "byteOffset" : 15772,
            "target" : 34963
        },
        {
            "buffer" : 0,
            "byteLength" : 708,
            "byteOffset" : 15988,
            "target" : 34962
        },
        {
            "buffer" : 0,
            "byteLength" : 708,
            "byteOffset" : 16696,
            "target" : 34962
        },
        {
            "buffer" : 0,
            "byteLength" : 944,
            "byteOffset" : 17404,
            "target" : 34962
        },
        {
            "buffer" : 0,
            "byteLength" : 472,
            "byteOffset" : 18348,
            "target" : 34962
        },
        {
            "buffer" : 0,
            "byteLength" : 12,
            "byteOffset" : 18820,
            "target" : 34963
        },
        {
            "buffer" : 0,
            "byteLength" : 48,
            "byteOffset" : 18832,
            "target" : 34962
        },
        {
            "buffer" : 0,
            "byteLength" : 48,
            "byteOffset" : 18880,
            "target" : 34962
        },
        {
            "buffer" : 0,
            "byteLength" : 64,
            "byteOffset" : 18928,
            "target" : 34962
        },
        {
            "buffer" : 0,
            "byteLength" : 32,
            "byteOffset" : 18992,
            "target" : 34962
        }
    ],
    "buffers" : [
        {
            "byteLength" : 19024,
            "uri" : "museum_cube_2_door_cornered.bin"
        }
    ],
    "images" : [
        {
            "name" : "Light_Conrete",
            "uri" : "Light_Conrete.jpg"
        }
    ],
    "materials" : [
        {
            "name" : "Color_M01.003",
            "pbrMetallicRoughness" : {
                "baseColorFactor" : [
                    0.886274516582489,
                    0.886274516582489,
                    0.886274516582489,
                    1.0
                ],
                "metallicFactor" : 0.0
            }
        },
        {
            "name" : "Color_M09.002",
            "pbrMetallicRoughness" : {
                "baseColorFactor" : [
                    0.0,
                    0.0,
                    0.0,
                    1.0
                ],
                "metallicFactor" : 0.0
            }
        },
        {
            "alphaMode" : "BLEND",
            "name" : "edge_color000255.003",
            "pbrMetallicRoughness" : {
                "baseColorFactor" : [
                    0.6400000190734865,
                    0.6400000190734865,
                    0.6400000190734865,
                    1.0
                ],
                "metallicFactor" : 0.0
            }
        },
        {
            "name" : "Light_Conrete",
            "pbrMetallicRoughness" : {
                "baseColorFactor" : [
                    0.6400000190734865,
                    0.6400000190734865,
                    0.6400000190734865,
                    1.0
                ],
                "baseColorTexture" : {
                    "index" : 0
                },
                "metallicFactor" : 0.0
            }
        }
    ],
    "meshes" : [
        {
            "name" : "ID4.002",
            "primitives" : [
                {
                    "attributes" : {
                        "NORMAL" : 2,
                        "POSITION" : 1,
                        "TANGENT" : 3,
                        "TEXCOORD_0" : 4
                    },
                    "indices" : 0,
                    "material" : 0
                },
                {
                    "attributes" : {
                        "NORMAL" : 7,
                        "POSITION" : 6,
                        "TANGENT" : 8,
                        "TEXCOORD_0" : 9
                    },
                    "indices" : 5,
                    "material" : 1
                },
                {
                    "attributes" : {
                        "NORMAL" : 12,
                        "POSITION" : 11,
                        "TANGENT" : 13,
                        "TEXCOORD_0" : 14
                    },
                    "indices" : 10,
                    "material" : 3
                }
            ]
        },
        {
            "name" : "ID4.003",
            "primitives" : [
                {
                    "attributes" : {
                        "NORMAL" : 17,
                        "POSITION" : 16,
                        "TANGENT" : 18,
                        "TEXCOORD_0" : 19
                    },
                    "indices" : 15,
                    "material" : 0
                },
                {
                    "attributes" : {
                        "NORMAL" : 22,
                        "POSITION" : 21,
                        "TANGENT" : 23,
                        "TEXCOORD_0" : 24
                    },
                    "indices" : 20,
                    "material" : 1
                },
                {
                    "attributes" : {
                        "NORMAL" : 27,
                        "POSITION" : 26,
                        "TANGENT" : 28,
                        "TEXCOORD_0" : 29
                    },
                    "indices" : 25,
                    "material" : 3
                }
            ]
        }
    ],
    "nodes" : [
        {
            "mesh" : 0,
            "name" : "mass",
            "translation" : [
                -472.4408874511719,
                0.0,
                472.4408874511719
            ]
        },
        {
            "mesh" : 1,
            "name" : "mass_collider",
            "translation" : [
                -472.4408874511719,
                0.0,
                472.4408874511719
            ]
        },
        {
            "children" : [
                0,
                1
            ],
            "name" : "SketchUp",
            "scale" : [
                0.02539999969303608,
                0.02539999969303608,
                0.02539999969303608
            ]
        }
    ],
    "samplers" : [
        {}
    ],
    "scene" : 0,
    "scenes" : [
        {
            "name" : "Scene",
            "nodes" : [
                2
            ]
        }
    ],
    "textures" : [
        {
            "sampler" : 0,
            "source" : 0
        }
    ]
}
